<?xml version="1.0" encoding="utf-8"?>
<!-- Generator: Adobe Illustrator 16.0.0, SVG Export Plug-In . SVG Version: 6.00 Build 0)  -->
<!DOCTYPE svg PUBLIC "-//W3C//DTD SVG 1.1//EN" "http://www.w3.org/Graphics/SVG/1.1/DTD/svg11.dtd">
<svg version="1.1" id="图层_1" xmlns="http://www.w3.org/2000/svg" xmlns:xlink="http://www.w3.org/1999/xlink" x="0px" y="0px"
	 width="800px" height="400px" viewBox="0 0 800 400" style="enable-background:new 0 0 800 400;" xml:space="preserve">
<style type="text/css">
<![CDATA[
	.st0{fill-rule:evenodd;clip-rule:evenodd;fill:#C32825;}
]]>
</style>
<g>
	<path class="st0" d="M761.85,285.73c0.93,0.4,1.72,0.99,2.36,1.84c1.58,2.96,1.73,3.88,1.73,4.87c0,1.25-0.29,2.5-0.88,3.69
		c-0.59,1.18-1.56,2.03-2.91,2.5c1.14,0.52,1.93,1.18,2.4,2.11c0.48,0.86,0.72,2.17,0.72,4.02c0,2.96-0.28,5.86-0.19,6.25l-5,0.07
		l0.06-3.62l-0.03-2.43c-0.02-1.64-0.31-2.77-0.86-3.35c-0.55-0.53-1.58-0.79-3.08-0.79h-5.29v10.2h-5v-25.99h12.01
		C759.61,285.08,760.93,285.34,761.85,285.73L761.85,285.73z M750.88,289.55v6.98h5.8c1.15,0,2.02-0.13,2.59-0.39
		c1.02-0.47,1.53-1.45,1.53-2.9c0-1.58-0.49-2.64-1.48-3.22c-0.55-0.27-1.38-0.47-2.48-0.47H750.88L750.88,289.55z M733.65,285.08
		h7.36v25.99h-4.77V293.5l0.03-4.28l-4.64,21.85h-4.97l-4.6-21.85l0.03,4.28v17.57h-4.77v-25.99h7.44l4.46,20.4L733.65,285.08
		L733.65,285.08z"/>
	<path class="st0" d="M307.82,288.04c-26.77-17.25-63.1-20.27-121.7-4.02c-62.46,14.67-83.29,24.08-110.64,5.2
		c-10.51-9.28-14.27-24.22-11.46-45.75c6.52-35.08,24.16-68.84,55.48-106.29c17.48-19.48,33.69-36.2,55.11-42.91
		c16.41-4.21,14.87,8.69,12.89,10.53c-2.1,0-5.62,0.33-8.33,2.11c-2.21,1.71-8.27,7.24-8.59,14.68c-0.47,11.39,11.31,9.02,16.4,2.76
		c5.47-7.04,13.57-20.53,7.2-33.1c-2.67-4.48-7.28-7.57-13.01-8.62c-19.61-1.12-37.87,8.22-54.72,18.56
		c-36.86,25.6-66.34,61.08-83.02,99.91c-9.62,23.43-18.31,56.99-5.28,84.31c10.09,18.95,31.03,29.02,56.01,26.92
		c17.52-1.84,38.71-7.5,52.96-10.92c14.25-3.43,87.19-28.5,111.16,15.14c0,0,7.97-15.47,27.89-15.8c16.37-1.51,40,4.74,57.2,17.38
		C337.62,309.49,321.37,296.79,307.82,288.04L307.82,288.04z"/>
	<path class="st0" d="M193.56,141.59c-13.64-8.95-41.06,8.16-63.02,37.52c-20.08,26.33-28.75,56.93-19.32,71.08
		c14.04,16.65,40.1-7.57,51.18-20.53l1.43-1.52c7.54-8.1,13.36-17.83,19-27.18c0,0,5.18-8.56,5.43-8.95
		c3.2-0.59,7.06-1.51,11.41-2.76c-0.06,0.2-16.63,28.03-14.94,41.86c0.53,4.21,0.12,19.61,15.16,24.29
		c20.04,3.35,36.04-12.18,50.16-26c0,0,2.41-2.3,3.77-3.62c-0.34,1.38-0.79,3.22-0.79,3.22c-5.87,20.4,2.04,24.68,6.99,26.26
		c14.95,4.35,32.81-17.37,32.87-17.37c-0.46,6.84-1.82,12.5,5.39,17.04c6.81,2.44,13.7-1.18,18.93-4.67
		c18.86-13.29,34.06-34.23,46.33-52h-7.83c-0.09,0.13-19.32,27.77-31.8,33.83c-0.02,0-2.29,1.12-3.6,0.2
		c-1.62-1.38-0.98-4.47,0.02-6.51c0.06-0.13,48.21-83.85,48.21-83.85H345.8c0,0-2.48,4.21-2.69,4.47c-0.16-0.13-0.52-0.72-0.77-1.05
		c-14.08-19.48-45.98,10.53-69.99,45.28c-9.25,13.36-21.01,28.43-33.22,39.3c0,0-18.08,16.58-25.8,4.67
		c-2.82-5-1.95-12.31-0.36-17.11c8.99-25.6,24.49-48.84,42.13-62.86c4.98-3.88,10.39-5,13.07-3.36c2.56,1.52,2.97,5.27,1.35,7.83
		c-4.11-0.13-7.4,1.12-10.07,3.88c-5.27,5.53-7.1,10.86-5.43,15.86c8.14,11.58,24.37-11.32,23.59-25.27
		c-0.28-5-2.95-9.74-6.93-12.04c-5.94-3.55-14.99-2.63-20.85,0.2c-7.85,2.96-20.27,13.3-27.51,21.32
		c-9.13,10.07-24.78,21.26-29.67,20.01C194.24,178.78,207.47,151.73,193.56,141.59L193.56,141.59z M303.15,181.61
		c4.42-6.12,17.29-22.51,20.43-25.27c10.55-9.28,14.77-5.2,15.14-2.3c-9.85,17.64-21.47,37.84-32.4,56.01
		c0.02-0.07-3.42,5.2-3.42,5.2c-4.83,7.38-9.69,13.69-17.62,18.1c-1.13,0.33-2.99,0.47-4.23-0.46c-1.5-0.99-2.08-2.64-1.91-4.35
		C279.61,222.88,285.37,205.57,303.15,181.61L303.15,181.61z M179.49,192.21c0,0-0.2,0.59-0.3,0.79c-0.03,0-9.91,16.12-9.91,16.12
		c-5.97,7.97-13.42,17.97-22.73,22.78c-2.76,0.92-6.57,1.51-8.52-0.92c-4.12-4.94-2-11.79-0.27-17.31l0.61-1.98
		c4.95-13.43,12.8-25.27,20.44-36.27c0.1-0.07,0.31-0.13,0.38-0.13c0.02,0.06,0.05,0.06,0.06,0.2c4.79,9.21,13.79,13.49,20.51,15.47
		c0.04,0,0.08,0.07,0.08,0.2C179.86,191.35,179.75,191.61,179.49,192.21L179.49,192.21z M188.85,173.19
		c-0.04,0.13-4.4,10.14-4.4,10.14c-0.63,0.53-1.63,0.26-2.77,0l-1.96-0.33c-6.15-1.91-10.78-5.99-12.21-10.86
		c-1.97-9.48,6.13-16.91,9.69-19.61c3.42-2.37,8.74-3.62,11.83-1.19c1.91,2.24,2.63,5.13,2.63,8.29
		C191.67,163.91,190.35,168.71,188.85,173.19L188.85,173.19z"/>
	<path class="st0" d="M476.23,203.72c-2.2-4.74-7.4-7.76-12.94-7.44c-18,1.64-35.63,16.45-44.86,37.71
		c-4.86,10.93-7.51,19.94-9.25,34.29c5.61-6.45,17.02-17.04,29.99-22.83c0,0,1.76-13.75,10.76-25.99
		c3.4-5.07,10.22-13.23,17.87-11.06c6.68,2.24,4.33,20.73-4.55,38.63c-6.57,13.16-16.62,26.33-26.79,35.41
		c-8.99,7.64-22.3,16.85-33.95,9.75c-7.33-4.34-11.07-13.43-10.28-25.15c3.51-33.23,18.63-61.54,40.29-93.79
		c22.32-29.94,46.93-60.68,80.09-77.07c6.76-3.42,13.03-4.21,18.43-2.11c0,0-31.12,17.11-45.95,48.77
		c-3.77,8.03-9.03,18.89-3.74,28.5c2.76,5,7.67,5.4,11.61,5.14c18.18-4.21,29.94-21.2,39.53-36.73
		c5.57-11.78,10.52-23.5,10.52-36.53c0-1.58-0.09-3.69-0.22-5.27c8.68-4.61,26.5,3.55,26.5,3.55c13.92,4.61,43.57,27.31,53.56,31.66
		c4.88-5.66,12.89-14.21,17.41-18.49l-6.54-4.02c-10.46-6.38-21.51-12.44-32.39-18.43c-24.71-13.49-44.83-8.75-55.06-5.07
		c-4.02,1.45-7.71,2.7-7.71,2.7c-7.6-8.29-20.05-7.5-29.23-5.27c-33.01,9.48-63.67,32.58-96.54,72.66
		c-24.16,31.39-39.15,58.51-47.14,85.3c-6.16,18.04-8.03,44.56,7,60.29c12.78,13.36,29.72,10.46,41.68,5.66
		c25.93-12.77,49.23-40.28,60.84-71.94C477.93,227.15,481.04,213.86,476.23,203.72L476.23,203.72z M535.83,104.54
		c-3.43,39.36-34.02,62.46-41.59,64.3c-4.59,0.92-12.41-1.12-5.43-17.64c10.29-22.25,27.85-41.14,46.72-50.81
		C535.98,102.04,535.97,103.09,535.83,104.54L535.83,104.54z"/>
	<path class="st0" d="M717.32,109.54c-16.46,9.35-33.52,15.4-54.17,13.29c-5.72,6.45-11.3,13.1-16.44,19.94
		c28.99,7.37,59.72-9.02,76.85-24.62c18.13-15.73,27.43-35.54,27.43-35.54S737.4,98.16,717.32,109.54L717.32,109.54z"/>
	<polygon class="st0" points="406.31,141.92 384.72,141.92 372.55,162.52 394.13,162.52 406.31,141.92 	"/>
	<path class="st0" d="M663.06,290.08c-2.32,1.58-5.58,0.26-4.36-3.36c3.04-9.21,15.12-28.17,15.12-28.17l33.63-59.83H684.4
		c-1.09,1.97-3.43,6.05-3.43,6.05c-1.07-1.78-4.26-5.66-5.57-6.51c-5.63-3.55-13.89-1.84-19.59,1.38
		c-24.76,14.48-42.84,43.11-57.09,65.42c0,0-15,24.81-23.33,26.66c-6.5,0.53-5.84-8.23-5.55-10.27
		c2.51-14.74,8.35-28.76,14.23-41.46c11.96-8.29,25.61-19.16,38.02-31.07c26.92-25.73,49.63-54.89,52.94-61.4
		c0,0-3.59,0.73-7.83,0.86c-20.71,28.89-63.1,70.88-75.95,77.14c5.7-13.7,42.48-79.05,73.77-110.31l4.93-4.74
		c7.62-7.44,15.51-15.07,21.65-16.32c0.65-0.07,1.49,0,2.21,1.51c0.27,5.79-1.88,10.07-4.36,14.94l-3.46,7.11
		c0,0,4.9-0.92,8.13-1.98c3.75-7.04,7.89-14.94,6.36-24.35c-0.51-3.03-2.69-5.33-5.57-5.86c-9.34-1.78-19.51,5.13-27.7,10.73
		l-0.33,0.2c-42.09,32.97-77.63,80.49-108.7,145.39c-2.25,1.71-10.95,3.75-12.44,2.76c3.08-6.32,6.94-14.8,8.87-24.02
		c0.33-2.64,0.64-5.34,0.64-7.97c0-5.66-1.36-10.99-6.43-14.68c-5.96-2.96-13.31-1.58-18.26,0.66
		c-22.21,9.21-38.81,31.98-50.79,50.75c-6.44,11.91-12.86,24.68-14.65,39.29c-1.25,11.45,1.3,18.82,7.81,22.51
		c6.69,3.42,15.12-0.13,18.43-1.84c22.5-11.84,38.23-35.6,50.62-57.33c0.5-0.07,7.26-0.26,12.38-1.58c0.07,0,0.1,0,0.21,0.07
		c-0.29,0.99-2.94,8.88-2.94,8.88c-7.86,23.04-11.49,38.7-4.06,47.98c10.59,13.1,28.15-0.46,42.43-18.36
		c-3.07,21.46,8.05,24.82,16.53,23.17c9.74-2.64,20.59-13.03,25.62-18.36c-1.62,6.25-1.17,17.44,7.68,18.56
		c6.07,1.12,10.62-1.97,15.88-4.8c18.85-10.28,41.43-44.69,47.29-54.17h-7.69C687,265.66,676.4,282.24,663.06,290.08L663.06,290.08z
		 M493.8,287.57c-1.2-1.78-1.59-3.82-1.63-5.93c-0.24-12.89,13.65-35.87,23.45-48.7c0.02,0,0.02,0,0.02,0
		c4.11,9.54,13.41,14.87,19.02,17.31C527.69,265.79,503.77,299.15,493.8,287.57L493.8,287.57z M538.6,243.41
		c-0.67,0.46-12.4-3.48-14.66-14.35c-1.92-9.34,4.51-16.65,10.75-20.34c2.67-2.11,6.7-2.83,9.65-1.78c2.74,1.84,3.48,5.13,3.48,8.69
		c0,2.17-0.29,4.41-0.54,6.45c0,0-0.05,0.4-0.06,0.46C545.27,229.86,542.28,237.03,538.6,243.41L538.6,243.41z M632.66,283.43
		c-0.01,0-2.22,1.98-2.22,1.98c-3.16,2.83-6.42,5.86-10.35,4.34c-1.08-0.39-1.85-1.84-2.03-2.96c-0.18-8.1,3.47-15.6,7-22.9
		l0.91-1.91c10.17-16.98,21.99-36.99,39.35-50.88c2.92-2.11,6.1-3.88,9.45-2.5c0.77,0.73,1.66,1.97,1.66,3.22
		c0,0.4-0.35,1.45-0.55,1.78c-4.85,7.83-9.47,16.06-13.96,23.95C653.15,253.15,644.04,269.28,632.66,283.43L632.66,283.43z"/>
</g>
</svg>
